<?xml version="1.0" standalone="no"?><!DOCTYPE svg PUBLIC "-//W3C//DTD SVG 1.1//EN" "http://www.w3.org/Graphics/SVG/1.1/DTD/svg11.dtd"><svg t="1586323193631" class="icon" viewBox="0 0 1024 1024" version="1.1" xmlns="http://www.w3.org/2000/svg" p-id="1138" width="32" height="32" xmlns:xlink="http://www.w3.org/1999/xlink"><defs><style type="text/css"></style></defs><path d="M499.2 76.8C732.4928 76.8 921.6 265.9072 921.6 499.2S732.4928 921.6 499.2 921.6 76.8 732.4928 76.8 499.2 265.9072 76.8 499.2 76.8z m0 76.8C308.3264 153.6 153.6 308.3264 153.6 499.2S308.3264 844.8 499.2 844.8 844.8 690.0736 844.8 499.2 690.0736 153.6 499.2 153.6z" p-id="1139" fill="#444444"></path><path d="M730.875032 785.180832m27.1529-27.1529l0 0q27.1529-27.1529 54.305801 0l126.713535 126.713535q27.1529 27.1529 0 54.305801l0 0q-27.1529 27.1529-54.305801 0l-126.713535-126.713535q-27.1529-27.1529 0-54.305801Z" p-id="1140" fill="#444444"></path></svg>